<svg width="112" height="29" viewBox="0 0 112 29" fill="none" xmlns="http://www.w3.org/2000/svg">
<path d="M17 16.9999V24.9999H21.2547C23.3221 24.9999 25 23.322 25 21.2546V16.9999H17Z" fill="#8DB524"/>
<path d="M17 16.9999H9V24.9999H17V16.9999Z" fill="#5D9631"/>
<path d="M9 16.9999H1V21.2546C1 23.322 2.6779 24.9999 4.74532 24.9999H9V16.9999Z" fill="#0E7B35"/>
<path d="M25 8.99994H17V16.9999H25V8.99994Z" fill="#7DCADF"/>
<path d="M17 8.99994H9V16.9999H17V8.99994Z" fill="#4E81BF"/>
<path d="M9 8.99994H1V16.9999H9V8.99994Z" fill="#445AA2"/>
<path d="M21.2547 0.999939H17V8.99994H25V4.74526C25 2.67784 23.3221 0.999939 21.2547 0.999939Z" fill="#F4CF00"/>
<path d="M17 0.999939H9V8.99994H17V0.999939Z" fill="#EE8C03"/>
<path d="M9 8.99994V0.999939H4.74532C2.6779 0.999939 1 2.67784 1 4.74526V8.99994H9Z" fill="#E54016"/>
<path d="M21 14.194C21 13.5373 20.4983 12.9999 19.885 12.9999C19.4669 12.9999 19.1045 13.2686 18.9233 13.6417L18.9094 13.6268C17.8502 15.985 15.6063 17.6119 13 17.6119C10.4216 17.6119 8.19164 15.9999 7.11847 13.6865L7.10453 13.7014C6.92335 13.2984 6.54704 13.0298 6.11498 13.0298C5.50174 13.0298 5 13.5671 5 14.2238C5 14.4328 5.06969 14.6268 5.15331 14.791C6.58885 17.8805 9.55749 19.9999 13 19.9999C16.4843 19.9999 19.4669 17.8208 20.8885 14.6865C20.9582 14.5373 21 14.3731 21 14.194Z" fill="white"/>
<g clip-path="url(#clip0_205_3200)">
<path fill-rule="evenodd" clip-rule="evenodd" d="M73.2881 17.5249C70.7068 17.7526 68.6569 15.6268 68.8088 13.0455C68.9606 11.0716 70.555 9.40133 72.6048 9.24949C75.1861 9.02173 77.236 11.1475 77.0842 13.7288C76.9323 15.7028 75.338 17.373 73.2881 17.5249ZM73.2122 5.14977C68.4292 4.99792 64.5572 8.86989 64.7091 13.6529C64.8609 17.9804 68.3533 21.4728 72.6808 21.6246C77.4638 21.7764 81.3357 17.9045 81.1839 13.1215C81.108 8.79397 77.5397 5.30161 73.2122 5.14977Z" fill="white"/>
<path fill-rule="evenodd" clip-rule="evenodd" d="M55.2944 17.5249C53.0168 17.5249 51.1188 15.7028 51.1188 13.4252C51.1188 11.1475 52.9409 9.32543 55.2944 9.32543C57.572 9.32543 59.47 11.1475 59.47 13.4252C59.47 15.7028 57.572 17.5249 55.2944 17.5249ZM55.2944 5.14978C50.8151 5.14978 47.0949 8.71806 47.019 13.1215V27.6983C47.019 27.6983 50.891 27.6983 50.891 24.5855V20.334C52.1816 21.0932 53.7001 21.6246 55.2944 21.6246C59.8497 21.6246 63.5698 17.9045 63.5698 13.3492C63.5698 8.79397 59.9256 5.14978 55.2944 5.14978Z" fill="white"/>
<path fill-rule="evenodd" clip-rule="evenodd" d="M41.7049 5.14978V14.1084C41.7049 16.0065 40.1865 17.5249 38.2884 17.5249C36.3904 17.5249 34.872 16.0065 34.872 14.1084V5.14978C34.872 5.14978 31 5.14978 31 8.11069V14.3362C31 14.488 31 14.564 31 14.7158C31 14.8676 31 14.9436 31 15.0954C31 15.2473 31.076 15.3232 31.076 15.475C31.076 15.5509 31.0759 15.7028 31.1519 15.7787C31.1519 15.9305 31.2278 16.0065 31.2278 16.1583C31.2278 16.2342 31.3037 16.3861 31.3037 16.462C31.3796 16.6138 31.3796 16.6898 31.4556 16.8416C31.4556 16.9175 31.5315 17.0694 31.5315 17.1453C31.6074 17.2971 31.6833 17.373 31.6833 17.5249C31.7592 17.6008 31.7592 17.6767 31.8352 17.7526C31.9111 17.9045 31.987 18.0563 32.0629 18.1322C32.1388 18.2082 32.1389 18.2841 32.2148 18.2841C32.2907 18.4359 32.4425 18.5878 32.5184 18.7396C32.5184 18.8155 32.5944 18.8155 32.5944 18.8915C32.7462 19.0433 32.8221 19.1951 32.974 19.347L33.0499 19.4229C33.2017 19.5747 33.3536 19.7266 33.5054 19.8784C34.7961 20.9413 36.3904 21.5487 38.1366 21.5487C39.8828 21.5487 41.553 20.9413 42.7678 19.8784C42.9196 19.7266 43.0715 19.5747 43.2233 19.4229L43.2992 19.347C43.451 19.1951 43.6029 19.0433 43.6788 18.8915C43.6788 18.8155 43.7548 18.8155 43.7548 18.7396C43.8307 18.5878 43.9825 18.4359 44.0584 18.2841C44.1343 18.2082 44.1343 18.1322 44.2103 18.1322C44.2862 17.9804 44.3621 17.8286 44.438 17.7526C44.5139 17.6767 44.5139 17.6008 44.5899 17.5249C44.6658 17.373 44.7417 17.2971 44.8176 17.1453C44.8935 17.0694 44.8935 16.9175 44.8935 16.8416C44.9695 16.6898 44.9695 16.6138 45.0454 16.462C45.0454 16.3861 45.1213 16.2342 45.1213 16.1583C45.1213 16.0065 45.1972 15.9305 45.1972 15.7787C45.1972 15.7028 45.1972 15.5509 45.2732 15.475C45.2732 15.3232 45.3491 15.2473 45.3491 15.0954C45.3491 15.0195 45.3491 14.8676 45.3491 14.7158C45.3491 14.564 45.3491 14.488 45.3491 14.3362V8.11069C45.5768 5.14978 41.7049 5.14978 41.7049 5.14978Z" fill="white"/>
<path fill-rule="evenodd" clip-rule="evenodd" d="M85.8905 17.6767V5.14978H85.8146C85.3591 5.14978 81.9426 5.30162 81.9426 8.71806V21.6246C82.0186 21.6246 85.8905 21.7005 85.8905 17.6767Z" fill="white"/>
<path fill-rule="evenodd" clip-rule="evenodd" d="M97.8866 21.6246C97.8866 21.6246 101.759 21.6246 101.759 18.1322V12.59C101.759 8.64208 98.7218 5.37749 94.8498 5.14973C90.5982 4.92196 87.1059 8.26248 87.1059 12.4381V21.6246C87.1059 21.6246 90.9778 21.6246 90.9778 18.36V12.7418C90.9778 10.9956 92.4203 9.40129 94.1665 9.24945C96.1404 9.09761 97.8866 10.6919 97.8866 12.6659V21.6246Z" fill="white"/>
<path fill-rule="evenodd" clip-rule="evenodd" d="M111.021 9.2495C111.021 8.94582 110.945 5.14978 106.693 5.14978H102.745V13.2733C102.745 13.3492 102.745 13.3492 102.745 13.4252C102.745 17.9804 106.465 21.7005 111.021 21.7005V17.6008C108.743 17.6008 106.921 15.7787 106.921 13.5011C106.921 13.4252 106.921 13.4251 106.921 13.3492V9.32543H111.021V9.2495Z" fill="white"/>
</g>
<defs>
<clipPath id="clip0_205_3200">
<rect width="80.4762" height="24.2947" fill="white" transform="translate(31 3.99994)"/>
</clipPath>
</defs>
</svg>
