<svg width="112" height="29" viewBox="0 0 112 29" fill="none" xmlns="http://www.w3.org/2000/svg">
<mask id="mask0_18_8" style="mask-type:alpha" maskUnits="userSpaceOnUse" x="31" y="4" width="81" height="25">
<path d="M111.476 3.99994H31V28.2946H111.476V3.99994Z" fill="white"/>
</mask>
<g mask="url(#mask0_18_8)">
<path fill-rule="evenodd" clip-rule="evenodd" d="M73.2879 17.5249C70.7066 17.7526 68.6567 15.6268 68.8086 13.0455C68.9604 11.0716 70.5548 9.40133 72.6046 9.24949C75.1859 9.02173 77.2358 11.1475 77.084 13.7288C76.9321 15.7028 75.3378 17.373 73.2879 17.5249ZM73.212 5.14977C68.429 4.99792 64.557 8.86989 64.7089 13.6529C64.8607 17.9804 68.3531 21.4728 72.6806 21.6246C77.4636 21.7764 81.3355 17.9045 81.1837 13.1215C81.1078 8.79397 77.5395 5.30161 73.212 5.14977Z" fill="white"/>
<path fill-rule="evenodd" clip-rule="evenodd" d="M55.2944 17.5249C53.0168 17.5249 51.1188 15.7028 51.1188 13.4252C51.1188 11.1475 52.9409 9.32543 55.2944 9.32543C57.572 9.32543 59.47 11.1475 59.47 13.4252C59.47 15.7028 57.572 17.5249 55.2944 17.5249ZM55.2944 5.14978C50.8151 5.14978 47.0949 8.71806 47.019 13.1215V27.6983C47.019 27.6983 50.891 27.6983 50.891 24.5855V20.334C52.1816 21.0932 53.7001 21.6246 55.2944 21.6246C59.8497 21.6246 63.5698 17.9045 63.5698 13.3492C63.5698 8.79397 59.9256 5.14978 55.2944 5.14978Z" fill="white"/>
<path fill-rule="evenodd" clip-rule="evenodd" d="M41.7049 5.14978V14.1084C41.7049 16.0065 40.1865 17.5249 38.2884 17.5249C36.3904 17.5249 34.872 16.0065 34.872 14.1084V5.14978C34.872 5.14978 31 5.14978 31 8.11069V14.3362C31 14.488 31 14.564 31 14.7158C31 14.8676 31 14.9436 31 15.0954C31 15.2473 31.076 15.3232 31.076 15.475C31.076 15.5509 31.0759 15.7028 31.1519 15.7787C31.1519 15.9305 31.2278 16.0065 31.2278 16.1583C31.2278 16.2342 31.3037 16.3861 31.3037 16.462C31.3796 16.6138 31.3796 16.6898 31.4556 16.8416C31.4556 16.9175 31.5315 17.0694 31.5315 17.1453C31.6074 17.2971 31.6833 17.373 31.6833 17.5249C31.7592 17.6008 31.7592 17.6767 31.8352 17.7526C31.9111 17.9045 31.987 18.0563 32.0629 18.1322C32.1388 18.2082 32.1389 18.2841 32.2148 18.2841C32.2907 18.4359 32.4425 18.5878 32.5184 18.7396C32.5184 18.8155 32.5944 18.8155 32.5944 18.8915C32.7462 19.0433 32.8221 19.1951 32.974 19.347L33.0499 19.4229C33.2017 19.5747 33.3536 19.7266 33.5054 19.8784C34.7961 20.9413 36.3904 21.5487 38.1366 21.5487C39.8828 21.5487 41.553 20.9413 42.7678 19.8784C42.9196 19.7266 43.0715 19.5747 43.2233 19.4229L43.2992 19.347C43.451 19.1951 43.6029 19.0433 43.6788 18.8915C43.6788 18.8155 43.7548 18.8155 43.7548 18.7396C43.8307 18.5878 43.9825 18.4359 44.0584 18.2841C44.1343 18.2082 44.1343 18.1322 44.2103 18.1322C44.2862 17.9804 44.3621 17.8286 44.438 17.7526C44.5139 17.6767 44.5139 17.6008 44.5899 17.5249C44.6658 17.373 44.7417 17.2971 44.8176 17.1453C44.8935 17.0694 44.8935 16.9175 44.8935 16.8416C44.9695 16.6898 44.9695 16.6138 45.0454 16.462C45.0454 16.3861 45.1213 16.2342 45.1213 16.1583C45.1213 16.0065 45.1972 15.9305 45.1972 15.7787C45.1972 15.7028 45.1972 15.5509 45.2732 15.475C45.2732 15.3232 45.3491 15.2473 45.3491 15.0954C45.3491 15.0195 45.3491 14.8676 45.3491 14.7158C45.3491 14.564 45.3491 14.488 45.3491 14.3362V8.11069C45.5768 5.14978 41.7049 5.14978 41.7049 5.14978Z" fill="white"/>
<path fill-rule="evenodd" clip-rule="evenodd" d="M85.8903 17.6767V5.14978H85.8144C85.3589 5.14978 81.9424 5.30162 81.9424 8.71806V21.6246C82.0184 21.6246 85.8903 21.7005 85.8903 17.6767Z" fill="white"/>
<path fill-rule="evenodd" clip-rule="evenodd" d="M97.8867 21.6246C97.8867 21.6246 101.759 21.6246 101.759 18.1322V12.59C101.759 8.64208 98.7219 5.37749 94.8499 5.14973C90.5983 4.92196 87.106 8.26248 87.106 12.4381V21.6246C87.106 21.6246 90.9779 21.6246 90.9779 18.36V12.7418C90.9779 10.9956 92.4203 9.40129 94.1665 9.24945C96.1404 9.09761 97.8867 10.6919 97.8867 12.6659V21.6246Z" fill="white"/>
<path fill-rule="evenodd" clip-rule="evenodd" d="M111.021 9.2495C111.021 8.94582 110.945 5.14978 106.693 5.14978H102.745V13.2733C102.745 13.3492 102.745 13.3492 102.745 13.4252C102.745 17.9804 106.465 21.7005 111.021 21.7005V17.6008C108.743 17.6008 106.921 15.7787 106.921 13.5011C106.921 13.4252 106.921 13.4251 106.921 13.3492V9.32543H111.021V9.2495Z" fill="white"/>
</g>
<path d="M13.68 25.79C11.95 25.79 10.5 25.69 9.23996 25.49C9.04996 25.46 8.82996 25.32 8.62996 25.12C8.62996 25.14 8.61996 25.15 8.60996 25.17C8.57996 25.22 8.49996 25.31 8.32996 25.31H8.27996C5.61996 24.71 3.86996 23.54 2.76996 21.62C1.70996 19.78 1.20996 17.15 1.20996 13.36C1.20996 6.16999 2.99996 2.85999 7.58996 1.55999H7.61996L7.62996 1.54999C7.69996 1.52999 7.76996 1.50999 7.83996 1.50999C8.03996 1.50999 8.21996 1.61999 8.32996 1.79999C8.42996 1.95999 8.43996 2.14999 8.36996 2.27999C8.26996 2.45999 8.23996 2.63999 8.19996 2.83999C8.19996 2.88999 8.17996 2.92999 8.16996 2.97999C8.22996 2.92999 8.38996 2.62999 8.49996 2.42999C8.63996 2.17999 8.77996 1.90999 8.89996 1.76999C9.13996 1.46999 9.48996 1.29999 9.85996 1.29999C9.87996 1.29999 9.89996 1.29999 9.91996 1.29999C10.8 1.33999 11.68 1.53999 12.54 1.86999C12.82 1.97999 13.08 2.03999 13.31 2.04999C13.34 2.04999 13.36 2.04999 13.39 2.04999C13.69 2.04999 14.02 1.96999 14.38 1.81999C15.12 1.49999 15.91 1.20999 16.72 1.20999C17 1.20999 17.39 1.30999 17.75 1.48999C17.75 1.46999 17.75 1.44999 17.77 1.41999C17.82 1.29999 17.93 1.21999 18.06 1.21999C18.38 1.21999 18.54 1.25999 18.78 1.30999C24.13 2.39999 26.11 5.65999 26.11 13.36C26.11 19.68 24.77 22.91 21.47 24.5H21.44L21.41 24.52C21.37 24.52 21.34 24.52 21.31 24.52C21.1 24.52 20.94 24.41 20.85 24.22C20.79 24.09 20.78 23.92 20.8 23.74C20.32 24.82 19.67 25.13 19.41 25.22H19.39C18.96 25.33 18.52 25.42 18.08 25.49H18.04H18C17.9 25.47 17.83 25.41 17.78 25.32C17.67 25.1 17.78 24.8 18.02 24.23C18.04 24.19 18.05 24.15 18.07 24.11C17.99 24.27 17.91 24.45 17.83 24.63C17.62 25.13 17.44 25.56 17.07 25.62C16.04 25.73 14.93 25.78 13.66 25.78L13.68 25.79ZM10.16 19.65C11.27 20.09 12.45 20.32 13.66 20.32C13.97 20.32 14.28 20.3 14.59 20.27C14.59 20.22 14.59 20.14 14.59 20C14.56 19.77 14.65 19.62 14.72 19.54C14.87 19.37 15.1 19.34 15.27 19.34C15.31 19.34 15.34 19.34 15.36 19.34C15.49 19.32 16.05 19.25 16.35 19.25C16.47 19.25 16.55 19.26 16.6 19.29C16.71 19.35 16.78 19.47 16.86 19.59C16.88 19.63 16.92 19.69 16.95 19.72C17.34 19.58 17.73 19.4 18.1 19.21C18.31 18.11 18.35 17.7 18.35 17.63C18.35 17.6 18.34 17.57 18.33 17.54C18.29 17.33 18.22 16.97 18.6 16.76C18.65 16.73 18.71 16.72 18.78 16.72C19.06 16.72 19.58 16.96 20.58 17.56L20.69 17.63C20.69 17.55 20.67 17.46 20.66 17.37C20.63 17.19 20.76 17.06 20.87 16.96C20.91 16.92 20.99 16.85 20.99 16.82C20.96 16.75 20.94 16.65 21.03 16.51C21.12 16.37 21.35 16.17 21.54 16.13C21.78 15.77 22 15.4 22.19 15.01C22.32 14.75 22.33 14.45 22.21 14.18C22.1 13.91 21.87 13.71 21.6 13.62C21.5 13.59 21.39 13.57 21.29 13.57C20.91 13.57 20.57 13.78 20.4 14.11C19.47 16.01 17.77 17.44 15.74 18.02C15.67 18.16 15.54 18.47 15.45 18.87C15.37 19.23 15.19 19.31 15.06 19.31C14.76 19.31 14.57 18.9 14.57 18.9V18.88C14.4 18.5 14.36 18.42 14.34 18.4C14.32 18.38 14.27 18.33 14.22 18.29C14.03 18.3 13.85 18.31 13.67 18.31C12.69 18.31 11.73 18.12 10.82 17.75C9.98996 17.41 9.22996 16.92 8.56996 16.31C8.40996 16.42 8.18996 16.78 8.08996 16.93C7.98996 17.09 7.93996 17.17 7.87996 17.23C7.85996 17.25 7.84996 17.26 7.82996 17.28C7.76996 17.34 7.69996 17.41 7.56996 17.41C7.45996 17.41 7.37996 17.35 7.28996 17.28L7.24996 17.25L7.22996 17.21C7.03996 16.82 7.20996 16.2 7.36996 15.66C7.42996 15.44 7.49996 15.22 7.49996 15.11C7.27996 14.79 7.07996 14.46 6.91996 14.12C6.75996 13.78 6.41996 13.58 6.02996 13.58C5.91996 13.58 5.81996 13.6 5.71996 13.63C5.43996 13.72 5.21996 13.93 5.09996 14.19C4.98996 14.46 4.99996 14.76 5.11996 15.02C5.83996 16.48 6.92996 17.74 8.26996 18.66C8.47996 18.58 8.97996 18.35 9.46996 17.91C9.67996 17.73 9.83996 17.64 9.98996 17.64C10.09 17.64 10.19 17.68 10.25 17.77C10.4 17.96 10.35 18.31 10.31 18.45C10.15 19.13 10.14 19.25 10.14 19.27C10.14 19.3 10.14 19.34 10.14 19.39C10.14 19.44 10.14 19.49 10.14 19.54C10.14 19.59 10.14 19.63 10.14 19.66L10.16 19.65Z" fill="#F05A33"/>
<path d="M16.72 1.42C17.27 1.42 18.4 2.03 18.62 2.61C18.66 2.72 18.79 3.48 18.83 3.95C18.89 4.58 18.69 5.66 18.78 5.66C18.88 5.66 18.84 5.31 18.89 4.62C18.94 3.93 18.83 2.68 18.74 2.52C18.55 2.14 18.22 1.8 17.99 1.59C17.92 1.53 17.97 1.42 18.06 1.42C18.34 1.42 18.49 1.45 18.74 1.5C24.11 2.59 25.9 5.98 25.9 13.34C25.9 19.35 24.71 22.68 21.38 24.29C21.35 24.29 21.33 24.29 21.31 24.29C20.69 24.29 21.09 22.92 21.38 22.68C21.52 22.53 21.6 22.34 21.58 22.2C21.57 22.16 21.54 22.16 21.52 22.16C21.43 22.16 21.09 22.49 20.65 23.56C20.2 24.62 19.59 24.92 19.36 24.99C18.95 25.09 18.52 25.18 18.07 25.25C17.78 25.18 18.24 24.38 18.49 23.66C18.78 22.9 18.4 22.03 18.21 22.03C17.91 22.06 18.82 23.08 18.05 23.77C17.67 24.32 17.48 25.32 17.08 25.39C16.06 25.5 14.94 25.55 13.71 25.55C12.04 25.55 10.58 25.46 9.31 25.25C8.91 25.18 8.23 24.35 7.99 23.72C7.79 23.18 7.38 22.64 7.16 22.64C7.13 22.64 7.1 22.65 7.07 22.68C6.92 22.95 7.66 23.02 7.82 23.7C7.99 24.44 8.72 25.07 8.36 25.07C3.2 23.95 1.42 20.6 1.42 13.36C1.42 6.12 3.04 3.06 7.66 1.76C7.72 1.73 7.78 1.72 7.83 1.72C8.1 1.72 8.25 2.03 8.17 2.18C7.99 2.52 8 2.87 7.89 3.19C7.63 3.95 8.31 5.78 8.41 5.74C8.43 5.72 8.23 5.48 8.3 5.44C8.39 5.38 7.73 3.54 8.3 3.14C8.46 3.03 8.85 2.17 9.07 1.89C9.27 1.65 9.56 1.5 9.87 1.5C9.89 1.5 9.9 1.5 9.92 1.5C10.79 1.54 11.65 1.74 12.47 2.06C12.74 2.17 13.02 2.24 13.31 2.25C13.34 2.25 13.37 2.25 13.4 2.25C13.76 2.25 14.13 2.15 14.47 2C15.19 1.69 15.96 1.41 16.73 1.41M15.06 19.08C14.93 19.08 14.78 18.84 14.76 18.8C14.73 18.73 14.56 18.32 14.51 18.26C14.46 18.2 14.36 18.1 14.28 18.05C14.08 18.07 13.87 18.08 13.66 18.08C12.68 18.08 11.75 17.89 10.9 17.54C10.05 17.19 9.28 16.68 8.62 16.05C8.26 16.08 7.87 16.92 7.74 17.05C7.66 17.12 7.63 17.17 7.58 17.17C7.55 17.17 7.5 17.14 7.43 17.09C7.19 16.6 7.73 15.45 7.73 15.06C7.73 15.04 7.73 15.02 7.73 15.01C7.5 14.69 7.3 14.35 7.13 14C6.93 13.58 6.5 13.34 6.05 13.34C5.92 13.34 5.8 13.36 5.67 13.4C4.97 13.63 4.63 14.43 4.95 15.09C5.7 16.63 6.85 17.93 8.27 18.88C8.28 18.88 8.98 18.64 9.64 18.05C9.82 17.89 9.93 17.83 10.01 17.83C10.23 17.83 10.15 18.3 10.13 18.38C10.1 18.49 9.95 19.14 9.96 19.25C9.96 19.31 9.96 19.42 9.96 19.53C9.96 19.63 9.96 19.74 9.99 19.8C11.13 20.27 12.37 20.52 13.67 20.52C14.03 20.52 14.38 20.5 14.73 20.46C14.77 20.45 14.85 20.38 14.81 19.97C14.77 19.59 15.1 19.54 15.28 19.54C15.34 19.54 15.38 19.54 15.38 19.54C15.38 19.54 16.04 19.44 16.36 19.44C16.43 19.44 16.49 19.44 16.51 19.46C16.64 19.53 16.79 19.94 16.92 19.94C17.39 19.77 17.85 19.57 18.28 19.33C18.29 19.25 18.58 17.8 18.55 17.58C18.51 17.35 18.41 17.08 18.7 16.92C18.72 16.91 18.74 16.91 18.77 16.91C19.08 16.91 19.93 17.4 20.46 17.72C20.68 17.85 20.84 17.95 20.89 17.97C20.91 17.82 20.89 17.6 20.85 17.31C20.82 17.13 21.29 16.97 21.17 16.7C21.12 16.59 21.46 16.31 21.59 16.31C21.61 16.31 21.62 16.31 21.63 16.33C21.91 15.93 22.16 15.51 22.37 15.08C22.7 14.42 22.36 13.62 21.65 13.39C21.53 13.35 21.4 13.33 21.27 13.33C20.82 13.33 20.4 13.57 20.19 13.99C19.28 15.85 17.6 17.26 15.57 17.81C15.57 17.81 15.35 18.21 15.22 18.79C15.18 18.99 15.11 19.06 15.03 19.06M16.72 1C15.87 1 15.05 1.3 14.29 1.62C13.96 1.76 13.65 1.84 13.39 1.84C13.37 1.84 13.35 1.84 13.32 1.84C13.1 1.84 12.87 1.77 12.61 1.68C11.73 1.33 10.83 1.14 9.93 1.09C9.91 1.09 9.88 1.09 9.86 1.09C9.42 1.09 9.01 1.29 8.73 1.64C8.68 1.7 8.63 1.77 8.58 1.86C8.56 1.8 8.54 1.75 8.5 1.7C8.35 1.46 8.1 1.31 7.83 1.31C7.75 1.31 7.67 1.32 7.59 1.35H7.56L7.5 1.38C5.07 2.07 3.46 3.32 2.42 5.29C1.46 7.14 1 9.71 1 13.36C1 17.19 1.5 19.85 2.58 21.73C3.72 23.71 5.51 24.91 8.23 25.51H8.27L8.31 25.52H8.33C8.48 25.52 8.59 25.47 8.66 25.42C8.84 25.57 9.03 25.67 9.21 25.7C10.48 25.9 11.94 26 13.68 26C14.96 26 16.07 25.95 17.1 25.84H17.11H17.12C17.34 25.8 17.5 25.68 17.64 25.5C17.71 25.6 17.82 25.68 17.95 25.71L18.03 25.73H18.11C18.56 25.65 19 25.56 19.44 25.45H19.46H19.48C19.72 25.37 20.24 25.13 20.7 24.41C20.83 24.63 21.05 24.76 21.31 24.76C21.35 24.76 21.4 24.76 21.44 24.76H21.5L21.56 24.72C24.94 23.08 26.32 19.8 26.32 13.38C26.32 9.48 25.8 6.78 24.69 4.9C23.52 2.91 21.65 1.71 18.81 1.13C18.57 1.08 18.38 1.05 18.06 1.04C17.89 1.04 17.74 1.12 17.65 1.24C17.32 1.1 16.98 1.02 16.73 1.02L16.72 1Z" fill="#FFFF00"/>
</svg>
